HIERARCHY
ROOT Hips
{
	OFFSET 0.00000 0.00000 0.00000
	CHANNELS 6 Xposition Yposition Zposition Zrotation Yrotation Xrotation 
	JOINT LHipJoint
	{
		OFFSET 0 0 0
		CHANNELS 3 Zrotation Yrotation Xrotation
		JOINT LeftUpLeg
		{
			OFFSET 1.62329 -1.80800 0.67318
			CHANNELS 3 Zrotation Yrotation Xrotation
			JOINT LeftLeg
			{
				OFFSET 2.57139 -7.06484 0.00000
				CHANNELS 3 Zrotation Yrotation Xrotation
				JOINT LeftFoot
				{
					OFFSET 2.52017 -6.92413 0.00000
					CHANNELS 3 Zrotation Yrotation Xrotation
					JOINT LeftToeBase
					{
						OFFSET 0.23295 -0.64001 2.10214
						CHANNELS 3 Zrotation Yrotation Xrotation
						End Site
						{
							OFFSET 0.00000 -0.00000 1.10139
						}
					}
				}
			}
		}
	}
	JOINT RHipJoint
	{
		OFFSET 0 0 0
		CHANNELS 3 Zrotation Yrotation Xrotation
		JOINT RightUpLeg
		{
			OFFSET -1.48061 -1.80800 0.67318
			CHANNELS 3 Zrotation Yrotation Xrotation
			JOINT RightLeg
			{
				OFFSET -2.63258 -7.23296 0.00000
				CHANNELS 3 Zrotation Yrotation Xrotation
				JOINT RightFoot
				{
					OFFSET -2.54779 -7.00000 0.00000
					CHANNELS 3 Zrotation Yrotation Xrotation
					JOINT RightToeBase
					{
						OFFSET -0.23067 -0.63376 2.12161
						CHANNELS 3 Zrotation Yrotation Xrotation
						End Site
						{
							OFFSET -0.00000 -0.00000 1.11000
						}
					}
				}
			}
		}
	}
	JOINT LowerBack
	{
		OFFSET 0 0 0
		CHANNELS 3 Zrotation Yrotation Xrotation
		JOINT Spine
		{
			OFFSET -0.02108 2.07573 -0.16981
			CHANNELS 3 Zrotation Yrotation Xrotation
			JOINT Spine1
			{
				OFFSET 0.05070 2.08439 -0.03141
				CHANNELS 3 Zrotation Yrotation Xrotation
				JOINT Neck
				{
					OFFSET 0 0 0
					CHANNELS 3 Zrotation Yrotation Xrotation
					JOINT Neck1
					{
						OFFSET -0.10731 1.60408 0.31370
						CHANNELS 3 Zrotation Yrotation Xrotation
						JOINT Head
						{
							OFFSET 0.08411 1.65679 -0.30822
							CHANNELS 3 Zrotation Yrotation Xrotation
							End Site
							{
								OFFSET 0.03911 1.69149 -0.14146
							}
						}
					}
				}
				JOINT LeftShoulder
				{
					OFFSET 0 0 0
					CHANNELS 3 Zrotation Yrotation Xrotation
					JOINT LeftArm
					{
						OFFSET 3.52315 0.73219 -0.54694
						CHANNELS 3 Zrotation Yrotation Xrotation
						JOINT LeftForeArm
						{
							OFFSET 5.32462 -0.00000 -0.00000
							CHANNELS 3 Zrotation Yrotation Xrotation
							JOINT LeftHand
							{
								OFFSET 3.48402 -0.00000 -0.00000
								CHANNELS 3 Zrotation Yrotation Xrotation
								JOINT LeftFingerBase
								{
									OFFSET 0 0 0
									CHANNELS 3 Zrotation Yrotation Xrotation
									JOINT LeftHandIndex1
									{
										OFFSET 0.57248 -0.00000 -0.00000
										CHANNELS 3 Zrotation Yrotation Xrotation
										End Site
										{
											OFFSET 0.46154 -0.00000 -0.00000
										}
									}
								}
								JOINT LThumb
								{
									OFFSET 0 0 0
									CHANNELS 3 Zrotation Yrotation Xrotation
									End Site
									{
										OFFSET 0.46859 -0.00000 0.46859
									}
								}
							}
						}
					}
				}
				JOINT RightShoulder
				{
					OFFSET 0 0 0
					CHANNELS 3 Zrotation Yrotation Xrotation
					JOINT RightArm
					{
						OFFSET -3.41766 0.93592 -0.10019
						CHANNELS 3 Zrotation Yrotation Xrotation
						JOINT RightForeArm
						{
							OFFSET -5.33589 -0.00000 -0.00000
							CHANNELS 3 Zrotation Yrotation Xrotation
							JOINT RightHand
							{
								OFFSET -3.64134 -0.00000 -0.00000
								CHANNELS 3 Zrotation Yrotation Xrotation
								JOINT RightFingerBase
								{
									OFFSET 0 0 0
									CHANNELS 3 Zrotation Yrotation Xrotation
									JOINT RightHandIndex1
									{
										OFFSET -0.73481 -0.00000 -0.00000
										CHANNELS 3 Zrotation Yrotation Xrotation
										End Site
										{
											OFFSET -0.59242 -0.00000 -0.00000
										}
									}
								}
								JOINT RThumb
								{
									OFFSET 0 0 0
									CHANNELS 3 Zrotation Yrotation Xrotation
									End Site
									{
										OFFSET -0.60147 -0.00000 0.60147
									}
								}
							}
						}
					}
				}
			}
		}
	}
}
MOTION
Frames: 14
Frame Time: .0083333
-1.4974 16.9457 -4.1989 -2.0368 2.1170 45.5479 0.0000 0.0000 0.0000 1.8840 -11.7037 -74.8970 3.7387 11.8044 35.0434 -0.0180 3.4284 -3.8718 1.6283 -8.0446 -22.8496 0.0000 0.0000 0.0000 -2.5914 13.2630 -72.5288 -3.1853 -10.9892 32.2434 0.1512 -9.6502 -10.7385 -0.0625 -1.6134 4.4385 0.3380 0.2346 40.5667 3.3568 0.8452 9.0039 3.0769 0.3138 -9.5829 -10.7174 -4.0632 -34.5811 5.9594 -1.8454 13.3927 3.5391 -0.6772 9.8517 -0.0000 0.0000 0.0000 -37.3670 -51.8537 18.5429 22.0266 -33.0071 -6.6003 -0.0000 -0.0000 17.2302 17.2964 14.4798 4.4521 -7.1250 0.0000 -0.0000 -9.4790 44.9023 0.0231 -0.0000 0.0000 0.0000 30.3987 51.5476 8.4781 -24.8787 36.0798 -8.2184 0.0000 0.0000 33.9075 -26.1672 6.7296 -3.2954 7.1250 -0.0000 -0.0000 0.4373 -22.4900 0.2368
-1.4920 16.9478 -4.2047 -2.0314 2.0596 44.8936 0.0000 0.0000 0.0000 1.7588 -11.7430 -74.2985 3.7948 11.8823 35.3168 -0.0161 3.4484 -4.0375 1.6377 -8.0668 -22.9172 0.0000 0.0000 0.0000 -2.4151 13.2408 -71.9694 -3.2386 -11.0717 32.5219 0.1337 -9.4393 -10.7678 -0.0600 -1.5805 4.3477 0.4105 0.1795 39.5477 3.2868 0.7867 8.8439 2.9861 0.2937 -9.4295 -10.4119 -3.9112 -34.0226 5.8278 -1.8148 13.1724 3.4415 -0.6657 9.6823 0.0000 -0.0000 0.0000 -39.1480 -50.5850 20.4979 22.3960 -33.4217 -6.8027 -0.0000 -0.0000 17.1220 17.8558 14.6671 4.6631 -7.1250 0.0000 -0.0000 -9.0146 45.1615 -0.0362 0.0000 -0.0000 0.0000 32.5122 50.4224 10.2889 -25.2714 36.4801 -8.4508 0.0000 0.0000 34.2355 -26.3906 6.8874 -3.4053 7.1250 -0.0000 -0.0000 0.2801 -22.3001 0.1529
-1.4883 16.9541 -4.2057 -2.0061 2.0869 44.2258 0.0000 0.0000 0.0000 1.5339 -11.7422 -73.7119 3.8541 11.9637 35.6038 -0.0097 3.2880 -4.1627 1.6718 -8.1462 -23.1591 0.0000 0.0000 0.0000 -2.1968 13.1659 -71.3722 -3.2931 -11.1551 32.8047 0.1151 -9.2237 -10.8202 -0.0580 -1.5543 4.2755 0.6368 0.0528 38.5852 3.1348 0.6913 8.6086 2.7418 0.2567 -9.3620 -10.1375 -3.7934 -33.3519 5.9119 -1.8698 12.8389 3.4122 -0.6673 9.4664 -0.0000 -0.0000 0.0000 -40.6226 -49.3008 22.3253 22.7532 -33.8179 -7.0005 -0.0000 -0.0000 16.7360 17.8846 14.8615 4.7314 -7.1250 0.0000 -0.0000 -9.0357 45.3647 -0.0820 -0.0000 -0.0000 0.0000 34.6588 49.2079 12.0337 -25.6488 36.8598 -8.6761 0.0000 0.0000 34.4675 -26.4545 6.8624 -3.4025 7.1250 -0.0000 -0.0000 0.2323 -22.3238 0.1266
-1.4837 16.9548 -4.2041 -2.1333 2.1161 43.6305 0.0000 0.0000 0.0000 1.4266 -11.6029 -73.2512 3.9260 12.0613 35.9493 -0.0012 3.0780 -4.3263 1.6870 -8.1813 -23.2660 0.0000 0.0000 0.0000 -1.8663 13.1969 -70.8770 -3.3435 -11.2314 33.0642 0.1120 -9.1445 -10.7516 -0.0417 -1.3176 3.6231 0.8893 -0.0416 37.3955 3.0444 0.6386 8.4354 2.5306 0.2360 -9.1404 -9.8736 -3.6641 -32.8310 5.9747 -1.8773 12.5332 3.3859 -0.6499 9.2789 -0.0000 0.0000 0.0000 -41.8873 -48.0877 23.7242 23.0842 -34.1808 -7.1856 -0.0000 -0.0000 16.0423 16.9106 14.6627 4.4007 -7.1250 0.0000 -0.0000 -9.8757 45.0432 -0.0106 -0.0000 0.0000 0.0000 36.5829 47.9909 13.5386 -26.1895 37.3952 -9.0025 0.0000 0.0000 34.5695 -26.2172 6.8835 -3.3776 7.1250 -0.0000 -0.0000 0.4068 -22.3159 0.2219
-1.4812 16.9594 -4.2023 -2.2606 2.1810 42.8114 0.0000 0.0000 0.0000 1.2438 -11.4274 -72.5452 3.9918 12.1495 36.2630 0.0088 2.7961 -4.4775 1.6767 -8.1574 -23.1931 0.0000 0.0000 0.0000 -1.3822 13.1790 -70.1319 -3.3979 -11.3128 33.3424 0.1032 -8.9813 -10.6751 -0.0293 -1.1042 3.0356 1.0670 -0.0811 36.5240 3.0977 0.6450 8.2853 2.4895 0.2400 -9.0000 -9.8228 -3.6390 -32.5974 6.0341 -1.9000 12.3797 3.3926 -0.6510 9.1919 0.0000 -0.0000 0.0000 -43.4122 -46.8949 24.9538 23.4736 -34.6027 -7.4055 -0.0000 -0.0000 15.7774 16.3393 14.5256 4.2054 -7.1250 0.0000 -0.0000 -10.3601 44.8355 0.0425 0.0000 -0.0000 0.0000 38.1481 46.6786 14.7798 -26.8803 38.0648 -9.4252 0.0000 0.0000 34.5924 -25.7791 6.9291 -3.3346 7.1250 -0.0000 -0.0000 0.7291 -22.2937 0.3981
-1.4729 16.9520 -4.1913 -2.4567 1.9745 42.4518 0.0000 0.0000 0.0000 1.1087 -11.1087 -72.2693 4.0545 12.2325 36.5596 0.0156 2.6924 -4.6895 1.6554 -8.1082 -23.0431 0.0000 0.0000 0.0000 -1.0652 13.2570 -69.9520 -3.4539 -11.3959 33.6270 0.0914 -8.7158 -10.4972 -0.0271 -1.0633 2.9231 1.0799 -0.0135 34.7094 3.1516 0.6911 8.2910 2.5014 0.2657 -8.4633 -9.9915 -3.6934 -32.4428 6.1842 -1.9432 12.1825 3.4631 -0.6603 9.1060 -0.0000 -0.0000 0.0000 -44.9503 -45.5781 26.0286 24.0059 -35.1705 -7.7100 -0.0000 -0.0000 15.8108 16.2536 14.6515 4.2175 -7.1250 0.0000 -0.0000 -10.4701 44.9533 0.0122 -0.0000 -0.0000 0.0000 39.3909 45.4981 15.9205 -27.3575 38.5179 -9.7209 0.0000 0.0000 34.6803 -25.8564 6.8820 -3.3235 7.1250 -0.0000 -0.0000 0.6708 -22.3409 0.3655
-1.4668 16.9558 -4.1751 -2.1514 1.8761 41.9447 0.0000 0.0000 0.0000 0.5067 -11.1999 -71.7380 4.0940 12.2844 36.7457 0.0229 2.5416 -4.8553 1.6674 -8.1358 -23.1274 0.0000 0.0000 0.0000 -1.1717 12.9943 -69.5128 -3.5061 -11.4724 33.8900 0.0827 -8.5578 -10.4374 -0.0204 -0.9225 2.5356 0.9228 -0.0895 33.2148 3.1535 0.5142 8.2437 2.6469 0.1912 -7.9510 -10.2695 -3.8075 -32.5290 6.4994 -2.0282 12.0321 3.6058 -0.6716 9.0800 -0.0000 -0.0000 0.0000 -46.2403 -44.3980 26.9085 24.3274 -35.5085 -7.8959 -0.0000 -0.0000 15.9444 16.1469 14.6016 4.1745 -7.1250 0.0000 -0.0000 -10.5542 44.8900 0.0290 -0.0000 -0.0000 0.0000 40.5445 44.3628 17.0673 -27.7130 38.8507 -9.9431 0.0000 0.0000 34.9129 -26.2872 6.8231 -3.3585 7.1250 -0.0000 -0.0000 0.3532 -22.3784 0.1921
-1.4629 16.9631 -4.1563 -1.8462 1.7210 41.2823 0.0000 0.0000 0.0000 -0.0312 -11.3418 -70.9647 4.1236 12.3230 36.8845 0.0276 2.5823 -5.1091 1.6393 -8.0704 -22.9282 0.0000 0.0000 0.0000 -1.3542 12.8571 -68.8328 -3.5476 -11.5328 34.0986 0.0737 -8.4500 -10.4712 -0.0137 -0.7555 2.0762 0.6362 -0.0682 31.7375 3.0513 0.4266 8.4774 2.9220 0.1785 -7.7621 -10.3329 -3.8543 -32.4848 6.6018 -2.0861 11.8992 3.6414 -0.6879 9.0335 -0.0000 0.0000 0.0000 -47.5149 -43.2426 28.0181 24.5234 -35.7129 -8.0101 -0.0000 -0.0000 16.0063 16.1638 14.3779 4.1166 -7.1250 0.0000 -0.0000 -10.4815 44.6650 0.0877 -0.0000 0.0000 0.0000 41.3449 43.2209 18.1263 -27.9437 39.0644 -10.0882 0.0000 0.0000 34.7049 -26.6060 6.7466 -3.3676 7.1250 -0.0000 -0.0000 0.1165 -22.4429 0.0632
-1.4603 16.9942 -4.1313 -1.8198 1.6458 39.9138 0.0000 0.0000 0.0000 -0.4608 -11.2915 -69.3357 4.1396 12.3439 36.9597 0.0370 2.5351 -5.4415 1.5801 -7.9304 -22.5030 0.0000 0.0000 0.0000 -0.9891 12.8547 -67.2454 -3.5765 -11.5744 34.2425 0.0440 -8.1507 -10.6792 -0.0185 -0.8780 2.4133 0.6262 -0.0065 31.4204 3.0373 0.4944 8.3636 2.8838 0.2115 -7.7482 -10.1478 -3.8337 -32.1602 6.5293 -2.1512 11.5934 3.5691 -0.7183 8.8799 -0.0000 0.0000 0.0000 -48.6591 -42.1034 29.1616 24.8220 -36.0215 -8.1850 -0.0000 -0.0000 15.8957 16.4798 13.9917 4.0912 -7.1250 0.0000 -0.0000 -10.0994 44.3088 0.1741 -0.0000 0.0000 0.0000 42.7440 41.5850 19.0058 -28.5454 39.6135 -10.4696 0.0000 0.0000 34.8485 -27.1442 6.6588 -3.4023 7.1250 -0.0000 -0.0000 -0.2818 -22.5056 -0.1525
-1.4566 17.0253 -4.1114 -1.9350 1.7873 38.5174 0.0000 0.0000 0.0000 -0.7497 -11.1784 -67.7865 4.1636 12.3750 37.0716 0.0471 2.3362 -5.6387 1.5838 -7.9393 -22.5300 0.0000 0.0000 0.0000 -0.3396 12.7727 -65.5687 -3.5879 -11.5908 34.2993 0.0143 -7.8612 -10.9036 -0.0351 -1.2093 3.3248 0.8645 -0.0191 31.3305 3.1044 0.5616 8.1595 2.7979 0.2434 -7.9412 -10.0482 -3.8959 -32.2206 6.5154 -2.2696 11.6378 3.5299 -0.7705 8.9137 0.0000 0.0000 0.0000 -49.8519 -40.9116 30.2353 25.0914 -36.2973 -8.3440 -0.0000 -0.0000 15.8435 16.8184 13.6117 4.0689 -7.1250 0.0000 -0.0000 -9.7029 43.9594 0.2517 0.0000 0.0000 0.0000 43.5490 40.2552 19.7982 -28.8705 39.9053 -10.6775 0.0000 0.0000 34.6032 -27.5873 6.7458 -3.5122 7.1250 -0.0000 -0.0000 -0.6020 -22.3783 -0.3275
-1.4531 17.0500 -4.0890 -2.0185 1.8196 37.2688 0.0000 0.0000 0.0000 -1.1063 -11.0133 -66.4029 4.1892 12.4080 37.1911 0.0537 2.1944 -5.7561 1.6383 -8.0680 -22.9209 0.0000 0.0000 0.0000 0.2077 12.6965 -64.0714 -3.5869 -11.5894 34.2946 0.0023 -7.7128 -10.9489 -0.0419 -1.3218 3.6346 0.9765 -0.0156 30.8153 3.1393 0.5922 8.0729 2.7552 0.2572 -7.7988 -9.9531 -3.9000 -31.9611 6.5706 -2.3475 11.3802 3.5176 -0.7961 8.7914 -0.0000 -0.0000 0.0000 -50.7434 -39.8134 31.0950 25.3523 -36.5620 -8.4989 -0.0000 -0.0000 15.7120 16.8842 13.6093 4.0850 -7.1250 0.0000 -0.0000 -9.6432 43.9644 0.2489 -0.0000 -0.0000 0.0000 44.2321 39.1744 20.4094 -29.1743 40.1751 -10.8730 0.0000 0.0000 34.3950 -27.9000 6.7948 -3.5845 7.1250 -0.0000 -0.0000 -0.8282 -22.3016 -0.4520
-1.4499 17.0680 -4.0594 -2.1868 1.6768 36.0532 0.0000 0.0000 0.0000 -1.3602 -10.7663 -64.9682 4.2129 12.4385 37.3013 0.0601 2.2169 -5.9982 1.6712 -8.1448 -23.1549 0.0000 0.0000 0.0000 0.7139 12.7931 -62.6723 -3.5999 -11.6081 34.3593 -0.0099 -7.5555 -10.9884 -0.0408 -1.3038 3.5851 0.9615 0.0629 30.2407 3.1899 0.6777 7.9562 2.7844 0.2977 -7.6645 -10.0087 -3.9043 -31.6518 6.7865 -2.3982 11.1282 3.5915 -0.7981 8.6666 0.0000 -0.0000 0.0000 -51.6304 -38.6422 31.9374 25.5587 -36.7696 -8.6221 -0.0000 -0.0000 15.5439 16.9926 13.6292 4.1187 -7.1250 0.0000 -0.0000 -9.5502 43.9968 0.2387 0.0000 -0.0000 0.0000 45.3063 37.8780 21.0307 -29.6594 40.5996 -11.1873 0.0000 0.0000 34.6816 -28.3781 6.7620 -3.6395 7.1250 -0.0000 -0.0000 -1.1795 -22.3050 -0.6437
-1.4442 17.0925 -4.0229 -2.0759 1.5961 34.9099 0.0000 0.0000 0.0000 -1.9196 -10.6541 -63.5618 4.2357 12.4676 37.4069 0.0726 2.0881 -6.3064 1.6623 -8.1240 -23.0914 0.0000 0.0000 0.0000 1.0992 12.5065 -61.3586 -3.6252 -11.6442 34.4847 -0.0289 -7.2225 -10.9357 -0.0299 -1.1161 3.0682 0.9136 0.0622 29.4516 3.1611 0.6444 7.8252 2.7833 0.2842 -7.4360 -9.9252 -3.8752 -31.4157 6.9602 -2.4501 11.0301 3.6302 -0.8004 8.6051 0.0000 -0.0000 0.0000 -52.4091 -37.4610 32.8416 25.6788 -36.8898 -8.6942 -0.0000 -0.0000 15.5947 17.4170 13.3178 4.1332 -7.1250 0.0000 -0.0000 -9.0968 43.7248 0.2888 0.0000 -0.0000 0.0000 46.7737 36.1715 21.6465 -30.4426 41.2698 -11.7005 0.0000 0.0000 35.3638 -28.9074 6.7150 -3.6944 7.1250 -0.0000 -0.0000 -1.5690 -22.3206 -0.8559
-1.4411 17.1112 -3.9933 -1.4740 1.5304 33.7949 0.0000 0.0000 0.0000 -2.9431 -10.7933 -62.1861 4.2587 12.4969 37.5133 0.0870 1.9232 -6.6302 1.6465 -8.0872 -22.9794 0.0000 0.0000 0.0000 0.9879 11.9184 -60.1087 -3.6517 -11.6818 34.6156 -0.0519 -6.8836 -10.9742 -0.0264 -1.0486 2.8825 0.5739 -0.0159 28.9441 3.0132 0.4357 7.5918 2.8821 0.1940 -7.4481 -9.6168 -3.7296 -31.0669 6.8624 -2.3914 10.8129 3.5514 -0.7728 8.4677 0.0000 -0.0000 0.0000 -53.0764 -36.1331 33.5707 25.9296 -37.1392 -8.8451 -0.0000 -0.0000 15.8712 17.9609 12.9935 4.1687 -7.1250 0.0000 -0.0000 -8.5369 43.4507 0.3289 0.0000 -0.0000 0.0000 48.0051 34.5892 22.2865 -31.1528 41.8612 -12.1716 0.0000 0.0000 35.7389 -29.2723 6.6277 -3.7016 7.1250 -0.0000 -0.0000 -1.8411 -22.3937 -1.0014
